<?xml version="1.0" standalone="no"?>
<!DOCTYPE svg PUBLIC "-//W3C//DTD SVG 20010904//EN"
 "http://www.w3.org/TR/2001/REC-SVG-20010904/DTD/svg10.dtd">
<svg version="1.0" xmlns="http://www.w3.org/2000/svg"
 width="512.000000pt" height="512.000000pt" viewBox="0 0 512.000000 512.000000"
 preserveAspectRatio="xMidYMid meet">

<g transform="translate(0.000000,512.000000) scale(0.100000,-0.100000)"
fill="#000000" stroke="none">
<path d="M865 5110 c-253 -28 -458 -207 -532 -463 -12 -40 -16 -132 -20 -389
l-5 -338 201 0 201 0 0 -150 0 -150 -200 0 -200 0 0 -1810 0 -1810 2260 0
2260 0 0 1810 0 1810 -200 0 -200 0 0 150 0 150 201 0 201 0 -5 338 c-4 257
-8 349 -20 389 -53 183 -168 323 -332 404 -139 68 9 63 -1855 65 -927 1 -1716
-2 -1755 -6z m3485 -319 c61 -32 116 -86 148 -146 26 -48 27 -57 30 -237 l4
-188 -1962 0 -1962 0 4 188 c3 174 5 190 27 232 42 81 117 145 201 171 14 4
799 7 1745 6 l1720 -2 45 -24z m-220 -1021 l0 -150 -1560 0 -1560 0 0 150 0
150 1560 0 1560 0 0 -150z m400 -1960 l0 -1510 -1960 0 -1960 0 0 1510 0 1510
1960 0 1960 0 0 -1510z"/>
<path d="M2120 2560 l0 -300 -300 0 -300 0 0 -450 0 -450 300 0 300 0 0 -300
0 -300 450 0 450 0 0 300 0 300 300 0 300 0 0 450 0 450 -300 0 -300 0 0 300
0 300 -450 0 -450 0 0 -300z m600 -295 l0 -305 305 0 305 0 0 -150 0 -150
-305 0 -305 0 0 -305 0 -305 -150 0 -150 0 0 305 0 305 -305 0 -305 0 0 150 0
150 305 0 305 0 0 305 0 305 150 0 150 0 0 -305z"/>
</g>
</svg>
