<svg width="84" height="84" viewBox="0 0 84 84" fill="none" xmlns="http://www.w3.org/2000/svg">
<circle cx="42" cy="42" r="42" fill="#D0004B" fill-opacity="0.3"/>
<path d="M47 59.9167H37C27.95 59.9167 24.0833 56.05 24.0833 47V37C24.0833 27.95 27.95 24.0833 37 24.0833H47C56.05 24.0833 59.9167 27.95 59.9167 37V47C59.9167 56.05 56.05 59.9167 47 59.9167ZM37 26.5833C29.3167 26.5833 26.5833 29.3167 26.5833 37V47C26.5833 54.6833 29.3167 57.4167 37 57.4167H47C54.6833 57.4167 57.4167 54.6833 57.4167 47V37C57.4167 29.3167 54.6833 26.5833 47 26.5833H37Z" fill="#D0004B"/>
<path d="M42.001 43.7995C41.7843 43.7995 41.5677 43.7495 41.3677 43.6328L32.5344 38.5328C31.9344 38.1828 31.7343 37.4162 32.0843 36.8328C32.4343 36.2328 33.201 36.0328 33.7844 36.3828L41.9843 41.1328L50.1343 36.4162C50.7343 36.0662 51.501 36.2828 51.8343 36.8662C52.1677 37.4495 51.9677 38.2328 51.3843 38.5662L42.6177 43.6328C42.4343 43.7328 42.2177 43.7995 42.001 43.7995Z" fill="#D0004B"/>
<path d="M42 52.8668C41.3167 52.8668 40.75 52.3002 40.75 51.6168V42.5502C40.75 41.8668 41.3167 41.3002 42 41.3002C42.6833 41.3002 43.25 41.8668 43.25 42.5502V51.6168C43.25 52.3002 42.6833 52.8668 42 52.8668Z" fill="#D0004B"/>
<path d="M42.0003 53.2497C41.0337 53.2497 40.0838 53.033 39.3172 52.6163L33.9838 49.6497C32.3838 48.7663 31.1504 46.6497 31.1504 44.8163V39.1663C31.1504 37.3497 32.4004 35.233 33.9838 34.333L39.3172 31.3663C40.8505 30.5163 43.1503 30.5163 44.6837 31.3663L50.017 34.333C51.617 35.2163 52.8505 37.333 52.8505 39.1663V44.8163C52.8505 46.633 51.6003 48.7497 50.017 49.6497L44.6837 52.6163C43.917 53.0497 42.967 53.2497 42.0003 53.2497ZM42.0003 33.2497C41.4503 33.2497 40.917 33.3497 40.5337 33.5663L35.2004 36.533C34.3838 36.983 33.6504 38.2497 33.6504 39.1663V44.8163C33.6504 45.7497 34.3838 46.9997 35.2004 47.4497L40.5337 50.4163C41.3003 50.8497 42.7003 50.8497 43.467 50.4163L48.8003 47.4497C49.617 46.9997 50.3505 45.733 50.3505 44.8163V39.1663C50.3505 38.233 49.617 36.983 48.8003 36.533L43.467 33.5663C43.0837 33.3497 42.5503 33.2497 42.0003 33.2497Z" fill="#D0004B"/>
</svg>
